nColumns=19
nRows=71
DataType=double
version=3
OpenSimVersion=4.1
endheader
time	ground_force_1_vx	ground_force_1_vy	ground_force_1_vz	ground_force_1_px	ground_force_1_py	ground_force_1_pz	ground_force_1_mx	ground_force_1_my	ground_force_1_mz	ground_force_2_vx	ground_force_2_vy	ground_force_2_vz	ground_force_2_px	ground_force_2_py	ground_force_2_pz	ground_force_2_mx	ground_force_2_my	ground_force_2_mz
0.17	0	0	0	-0.000226869	0	-0.00109423	0	0	0	0	0	0	-0.000226869	0	-0.00109423	0	0	0
0.18	0	0	0	-0.000226869	0	-0.00109423	0	0	0	0	0	0	-0.000226869	0	-0.00109423	0	0	0
0.19	0	0	0	-0.000226869	0	-0.00109423	0	0	0	0	0	0	-0.000226869	0	-0.00109423	0	0	0
0.2	0	0	0	-0.000226869	0	-0.00109423	0	0	0	0	0	0	-0.000226869	0	-0.00109423	0	0	0
0.21	0	0	0	-0.000226869	0	-0.00109423	0	0	0	0	0	0	-0.000226869	0	-0.00109423	0	0	0
0.22	0	0	0	-0.000226869	0	-0.00109423	0	0	0	0	0	0	-0.000226869	0	-0.00109423	0	0	0
0.23	0	0	0	-0.000226869	0	-0.00109423	0	0	0	0	0	0	-0.000226869	0	-0.00109423	0	0	0
0.24	0	0	0	-0.000226869	0	-0.00109423	0	0	0	0	0	0	-0.000226869	0	-0.00109423	0	0	0
0.25	0	0	0	-0.000226869	0	-0.00109423	0	0	0	-3.39664	33.9179	-1.04591	1.15616	0	-0.316636	0	-2.03122	0
0.26	0	0	0	-0.000226869	0	-0.00109423	0	0	0	-9.08203	130.929	-1.12975	1.14365	0	-0.324372	0	-4.57148	0
0.27	0	0	0	-0.000226869	0	-0.00109423	0	0	0	-20.3955	399.366	1.47542	1.14676	0	-0.321933	0	-5.81942	0
0.28	0	0	0	-0.000226869	0	-0.00109423	0	0	0	-53.6423	858.538	5.53161	1.14215	0	-0.316726	0	-5.40763	0
0.29	0	0	0	-0.000226869	0	-0.00109423	0	0	0	-118.404	1289.87	1.17676	1.13432	0	-0.311974	0	-3.4442	0
0.3	0	0	0	-0.000226869	0	-0.00109423	0	0	0	-183.737	1480.84	-21.5999	1.12183	0	-0.312166	0	-0.586609	0
0.31	0	0	0	-0.000226869	0	-0.00109423	0	0	0	-225.727	1540.53	-50.3139	1.10058	0	-0.317451	-0	2.15723	-0
0.32	0	0	0	-0.000226869	0	-0.00109423	0	0	0	-230.252	1643.62	-57.9566	1.07105	0	-0.320531	-0	3.95736	-0
0.33	0	0	0	-0.000226869	0	-0.00109423	0	0	0	-185.605	1794.65	-43.7994	1.03663	0	-0.319819	-0	4.65578	-0
0.34	0	0	0	-0.000226869	0	-0.00109423	0	0	0	-113.635	1900.89	-34.4446	1.00362	0	-0.320248	-0	4.74501	-0
0.35	0	0	0	-0.000226869	0	-0.00109423	0	0	0	-54.6662	1909.19	-43.0024	0.975459	0	-0.322342	-0	4.86681	-0
0.36	0	0	0	-0.000226869	0	-0.00109423	0	0	0	-10.7768	1842.86	-58.2646	0.948758	0	-0.323605	-0	5.34843	-0
0.37	0	0	0	-0.000226869	0	-0.00109423	0	0	0	35.5067	1731.39	-68.803	0.920336	0	-0.32356	-0	6.11192	-0
0.38	0	0	0	-0.000226869	0	-0.00109423	0	0	0	74.5208	1572.59	-74.4659	0.892512	0	-0.323449	-0	6.84404	-0
0.39	0	0	0	-0.000226869	0	-0.00109423	0	0	0	98.9753	1366.11	-77.6095	0.866585	0	-0.323836	-0	7.19486	-0
0.4	0	0	0	-0.000226869	0	-0.00109423	0	0	0	114.604	1128.14	-76.31	0.840983	0	-0.324254	-0	6.91813	-0
0.41	0	0	0	-0.000226869	0	-0.00109423	0	0	0	118.407	874.326	-68.2603	0.814221	0	-0.324057	-0	5.95674	-0
0.42	0	0	0	-0.000226869	0	-0.00109423	0	0	0	112.52	616.899	-55.9125	0.780324	0	-0.323966	-0	4.45781	-0
0.43	0	0	0	-0.000226869	0	-0.00109423	0	0	0	103.866	381.615	-43.0674	0.731182	0	-0.32605	-0	2.70665	-0
0.44	0	0	0	-0.000226869	0	-0.00109423	0	0	0	83.7088	202.102	-30.0645	0.676233	0	-0.329937	-0	1.02731	-0
0.45	0	0	0	-0.000226869	0	-0.00109423	0	0	0	49.3163	89.3833	-17.165	0.649206	0	-0.330377	0	-0.297109	0
0.46	0	0	0	-0.000226869	0	-0.00109423	0	0	0	19.3912	33.2969	-7.51541	0.710457	0	-0.315826	0	-1.09095	0
0.47	0	0	0	-0.000226869	0	-0.00109423	0	0	0	5.14492	11.4904	-2.73191	0.824907	0	-0.279653	0	-1.34779	0
0.48	0	0	0	-0.000226869	0	-0.00109423	0	0	0	0	0	0	-0.000226869	0	-0.00109423	0	0	0
0.49	0	0	0	-0.000226869	0	-0.00109423	0	0	0	0	0	0	-0.000226869	0	-0.00109423	0	0	0
0.5	0	0	0	-0.000226869	0	-0.00109423	0	0	0	0	0	0	-0.000226869	0	-0.00109423	0	0	0
0.51	0	0	0	-0.000226869	0	-0.00109423	0	0	0	0	0	0	-0.000226869	0	-0.00109423	0	0	0
0.52	0	0	0	-0.000226869	0	-0.00109423	0	0	0	0	0	0	-0.000226869	0	-0.00109423	0	0	0
0.53	0	0	0	-0.000226869	0	-0.00109423	0	0	0	0	0	0	-0.000226869	0	-0.00109423	0	0	0
0.54	0	0	0	-0.000226869	0	-0.00109423	0	0	0	0	0	0	-0.000226869	0	-0.00109423	0	0	0
0.55	-4.51751	10.741	-3.53093	1.09208	0	-0.230088	0	-0.42537	0	0	0	0	-0.000226869	0	-0.00109423	0	0	0
0.56	-19.2969	34.235	-9.08793	1.17163	0	-0.288157	-0	1.17319	-0	0	0	0	-0.000226869	0	-0.00109423	0	0	0
0.57	-64.3444	120.417	-17.8023	1.21546	0	-0.301777	-0	2.84727	-0	0	0	0	-0.000226869	0	-0.00109423	0	0	0
0.58	-139.948	304.195	-25.8339	1.21759	0	-0.305345	-0	3.85515	-0	0	0	0	-0.000226869	0	-0.00109423	0	0	0
0.59	-173.707	556.322	-26.1382	1.19125	0	-0.309891	-0	3.54264	-0	0	0	0	-0.000226869	0	-0.00109423	0	0	0
0.6	-136.203	843.154	-13.3376	1.13549	0	-0.316303	-0	1.71893	-0	0	0	0	-0.000226869	0	-0.00109423	0	0	0
0.61	-121.916	1126.72	12.1448	1.08524	0	-0.32153	0	-1.1479	0	0	0	0	-0.000226869	0	-0.00109423	0	0	0
0.62	-154.175	1344.04	41.1896	1.05278	0	-0.324544	0	-4.07667	0	0	0	0	-0.000226869	0	-0.00109423	0	0	0
0.63	-164.582	1506.5	59.812	1.02183	0	-0.326806	0	-6.02921	0	0	0	0	-0.000226869	0	-0.00109423	0	0	0
0.64	-122.891	1650.54	63.574	0.983837	0	-0.327868	0	-6.42282	0	0	0	0	-0.000226869	0	-0.00109423	0	0	0
0.65	-62.1071	1756.69	59.7575	0.9451	0	-0.327329	0	-5.36859	0	0	0	0	-0.000226869	0	-0.00109423	0	0	0
0.66	-6.42031	1798.18	54.9445	0.909852	0	-0.326557	0	-3.5163	0	0	0	0	-0.000226869	0	-0.00109423	0	0	0
0.67	48.5143	1776.38	52.0035	0.876338	0	-0.32628	0	-1.67205	0	0	0	0	-0.000226869	0	-0.00109423	0	0	0
0.68	102.737	1697.29	52.5252	0.843189	0	-0.326143	0	-0.431012	0	0	0	0	-0.000226869	0	-0.00109423	0	0	0
0.69	150.553	1558.83	54.9937	0.810042	0	-0.326248	-0	0.014892	-0	0	0	0	-0.000226869	0	-0.00109423	0	0	0
0.7	193.537	1356.99	56.1864	0.774263	0	-0.326922	0	-0.152442	0	0	0	0	-0.000226869	0	-0.00109423	0	0	0
0.71	232.104	1099.78	54.6931	0.731807	0	-0.327966	0	-0.558682	0	0	0	0	-0.000226869	0	-0.00109423	0	0	0
0.72	247.698	820.022	50.9347	0.684693	0	-0.328955	0	-0.841758	0	0	0	0	-0.000226869	0	-0.00109423	0	0	0
0.73	224.882	564.572	45.8686	0.644018	0	-0.329348	0	-0.784866	0	0	0	0	-0.000226869	0	-0.00109423	0	0	0
0.74	178.343	359.499	39.891	0.61845	0	-0.328533	0	-0.352262	0	0	0	0	-0.000226869	0	-0.00109423	0	0	0
0.75	124.773	206.967	32.3248	0.606581	0	-0.326266	-0	0.34808	-0	0	0	0	-0.000226869	0	-0.00109423	0	0	0
0.76	71.1837	102.701	22.8627	0.605102	0	-0.32205	-0	1.13701	-0	0	0	0	-0.000226869	0	-0.00109423	0	0	0
0.77	28.1371	41.8363	13.0843	0.632419	0	-0.312088	-0	1.84331	-0	0	0	0	-0.000226869	0	-0.00109423	0	0	0
0.78	5.75876	13.8868	5.76079	0.732039	0	-0.284141	-0	2.36537	-0	0	0	0	-0.000226869	0	-0.00109423	0	0	0
0.79	0	0	0	-0.000226869	0	-0.00109423	0	0	0	0	0	0	-0.000226869	0	-0.00109423	0	0	0
0.8	0	0	0	-0.000226869	0	-0.00109423	0	0	0	0	0	0	-0.000226869	0	-0.00109423	0	0	0
0.81	0	0	0	-0.000226869	0	-0.00109423	0	0	0	0	0	0	-0.000226869	0	-0.00109423	0	0	0
0.82	0	0	0	-0.000226869	0	-0.00109423	0	0	0	0	0	0	-0.000226869	0	-0.00109423	0	0	0
0.83	0	0	0	-0.000226869	0	-0.00109423	0	0	0	0	0	0	-0.000226869	0	-0.00109423	0	0	0
0.84	0	0	0	-0.000226869	0	-0.00109423	0	0	0	-4.00716	11.3758	0.120806	1.11705	0	-0.308544	0	-0.775793	0
0.85	0	0	0	-0.000226869	0	-0.00109423	0	0	0	-17.5485	44.8215	0.958483	1.12646	0	-0.365464	0	-3.55483	0
0.86	0	0	0	-0.000226869	0	-0.00109423	0	0	0	-51.6168	167.886	6.21752	1.13414	0	-0.371719	0	-6.72262	0
0.87	0	0	0	-0.000226869	0	-0.00109423	0	0	0	-97.7169	460.75	19.6269	1.13562	0	-0.365672	0	-9.47113	0
